<svg width="291" height="71" viewBox="0 0 291 71" xmlns="http://www.w3.org/2000/svg">
    <g fill="none" fill-rule="evenodd">
        <g transform="translate(74.395 21.044)" fill="#FFF">
            <g fill-rule="nonzero">
                <path d="m20.756 0-7.372 13.18L6.363 0 0 22.334l6.056.973 1.93-9.331 5.398 9.818 5.617-9.995 1.887 9.331 5.924-.486zM32.078 7.872l-3.993.398V23.22l3.993-.575zM65.56 23.484c4.432 0 7.986-3.626 7.986-8.049 0-4.467-3.598-8.05-7.986-8.05s-7.987 3.627-7.987 8.05c0 4.423 3.555 8.05 7.987 8.05m-4.037-8.05c0-2.256 1.799-4.113 4.08-4.113a4.09 4.09 0 0 1 4.082 4.113c0 2.256-1.8 4.113-4.081 4.113-2.282-.044-4.081-1.857-4.081-4.113"/>
                <path d="M49.718 11.234v3.715c3.335 0 3.335-3.848 0-3.715zM46.032 23.13V7.872h6.056c5.749 0 4.959 8.36 1.93 8.36l3.994 5.793-3.51 1.46-4.784-6.59v6.28h-3.686v-.045zM73.24 22.423l4.3-14.949 4.651 8.801 4.915-8.8 4.081 15.169-3.95.31-1.272-6.236-3.774 6.678-3.598-6.59-1.273 6.236zM135.99 17.071h2.239l-1.273-2.432-.965 2.432zm1.054-9.552 8.381 14.86-3.817.707-2.063-2.83h-5.266l-1.272 2.874-4.213-.707 8.25-14.904zM98.866 17.16h2.238l-1.272-2.433-.966 2.433zm1.097-9.641 8.294 14.948-3.686.885-2.238-3.052-5.266.088-1.272 2.875-4.17-.796L99.964 7.52zM122.607 7.74V23.66l-9.742-8.359v7.74h-3.993V7.43h.482l9.26 7.96V7.74zM123.967 8.093l4.169-.353v15.302l-4.169.31zM44.102 23.086c-.922.354-1.668.487-2.677.487-4.432 0-7.987-3.627-7.987-8.05 0-4.422 3.598-8.049 7.987-8.049 1.053 0 1.843.133 2.764.487l.44 5.086c-.615-.929-1.976-1.637-3.204-1.637a4.09 4.09 0 0 0-4.081 4.114c0 2.255 1.799 4.113 4.08 4.113 1.405 0 2.634-.708 3.38-1.814l-.702 5.263z"/>
            </g>
            <g fill-rule="nonzero">
                <path d="M197.355 4.157h.088l.132-.132c.175-.133.307-.266.395-.398.087-.133.087-.31.044-.487 0-.044-.044-.088-.044-.133-.044-.044-.088-.132-.132-.22-.044-.09-.088-.133-.132-.222a.775.775 0 0 0-.175-.221c-.044-.044-.132-.088-.176-.133-.044-.044-.087-.044-.131-.044l-.044.044c-.044 0-.044.045-.088.045s-.044.044-.088.044c0 .044-.044.088-.044.177 0 .088 0 .177.044.31 0 .132.044.22.088.353.044.133.044.265.088.354.044.133.044.221.088.31.043.088.043.176.043.22 0 0 0 .045.044.045v.088m-.263 1.239-.044-.089-.044-.088c0-.044-.044-.089-.044-.133-.044-.088-.044-.177-.087-.265l-.176-.487c0-.044-.044-.132-.044-.177 0-.044-.044-.088-.044-.132l-.044-.089c0-.044-.043-.088-.043-.177 0-.088-.044-.177-.088-.265-.044-.089-.044-.221-.088-.31-.044-.088-.044-.22-.088-.31-.044-.088-.044-.176-.044-.265 0-.088-.044-.132-.044-.177V2.3c0-.044 0-.044.044-.089l.044-.044h.088c.044 0 .044 0 .088.044.044 0 .044 0 .088.045h.087c.044 0 .088-.045.132-.089l.132-.133.131-.132c.044-.044.088-.089.176-.089.131-.044.263-.044.35-.044.132 0 .22.044.308.089.088.044.176.132.263.176.088.089.132.177.22.266l.131.265c.044.089.088.177.088.221a.76.76 0 0 1 0 .443c-.044.132-.132.31-.22.442-.087.132-.219.265-.394.398a3.079 3.079 0 0 1-.44.354V4.6l.089.31c.044.088.087.22.131.309.044.088.088.177.176.31 0 .044 0 .088-.044.132 0 .044-.088.088-.132.088-.087.045-.175.045-.263.045-.088 0-.132-.045-.175-.089-.044-.044-.088-.088-.132-.177 0-.044-.044-.088-.044-.132M199.55 3.052v.353c0 .133.043.266.087.443l.132.398a.452.452 0 0 0 .22.265c.087.089.175.089.263.089a.334.334 0 0 0 .219-.089c.088-.044.132-.133.175-.221l.132-.265c.044-.089.044-.222.088-.31 0-.088.044-.177.044-.265v-.221c0-.045 0-.089-.044-.177 0-.089-.044-.177-.088-.266-.044-.088-.044-.22-.088-.354a2.165 2.165 0 0 0-.131-.31.963.963 0 0 0-.176-.22.334.334 0 0 0-.22-.089c-.087 0-.13.045-.219.045-.044.044-.087.044-.131.088l-.088.088c-.044.045-.044.089-.044.089 0 .044-.044.133-.044.221s-.044.177-.044.265c0 .089-.044.177-.044.266v.177m-.702.707-.044-.265a1.688 1.688 0 0 1 0-.664c.044-.22.088-.442.176-.663.088-.221.22-.354.395-.53a1.48 1.48 0 0 1 .658-.266h.044c.132 0 .263 0 .395.044s.22.133.351.221c.088.089.176.177.263.31.088.133.176.265.22.354l.131.398c.044.132.044.22.088.354v.353c0 .133-.044.266-.088.398a1.577 1.577 0 0 1-.175.399 2.452 2.452 0 0 1-.263.353 1.53 1.53 0 0 1-.395.266.88.88 0 0 1-.483.132h-.044c-.132 0-.263 0-.439-.088-.131-.089-.263-.177-.395-.31a2.428 2.428 0 0 1-.307-.398 1.652 1.652 0 0 1-.088-.398M202.533 3.405l.088.045.176-.045c.22-.044.395-.088.526-.22a.465.465 0 0 0 .22-.399v-.354c0-.088 0-.176-.044-.265 0-.088-.044-.177-.044-.265-.044-.089-.044-.133-.088-.177-.044-.044-.088-.089-.131-.089h-.264c-.044 0-.044.045-.088.133-.043.089-.043.177-.087.265-.044.089-.044.222-.088.354-.044.133-.044.266-.088.354-.044.133-.044.221-.044.31 0 .088-.044.177-.044.22v.133m-.79.973v-.353c0-.089 0-.177.044-.31l.044-.486c0-.045 0-.133.044-.177V2.83c0-.044 0-.088.044-.176 0-.089.044-.177.044-.266 0-.088.044-.22.044-.31 0-.132.044-.22.044-.309.044-.088.044-.177.044-.265 0-.089.043-.133.043-.177l.044-.044.044-.045.044-.044h.088c.044 0 .044 0 .088.044l.044.045.043.044s.044.044.088.044h.176c.044 0 .087-.044.175-.044.044 0 .132-.044.176-.044h.175c.132 0 .264.044.351.132a.53.53 0 0 1 .22.221c.044.089.131.177.131.266.044.088.044.22.088.31V2.785c0 .133-.088.31-.175.398-.088.133-.22.221-.395.31-.176.088-.351.177-.527.221l-.526.133-.044.088-.044.31v.31c0 .132 0 .22.044.353l-.088.089c-.044.044-.088.044-.176.044a.62.62 0 0 1-.263-.089c-.044-.044-.088-.088-.132-.177-.043-.044-.043-.132-.043-.22v-.178M206.527 6.147c-.044 0-.132-.044-.264-.088a1.576 1.576 0 0 1-.438-.31.876.876 0 0 1-.264-.486c-.044-.177-.044-.398 0-.663a3.27 3.27 0 0 1 .307-.93c.088-.176.176-.309.308-.486.131-.177.263-.31.438-.398.176-.088.351-.177.57-.22a1.12 1.12 0 0 1 .66.043c.087.045.13.045.219.089.131.044.219.132.307.22.087.09.131.178.22.266a.643.643 0 0 1 .087.31v.31c0 .044 0 .088-.044.132l-.351.177-.088-.044c0-.044.044-.089.044-.133 0-.044 0-.044.044-.088.044-.045.044-.133.044-.221V3.45c0-.045-.044-.133-.044-.177-.044-.044-.044-.089-.088-.177a.606.606 0 0 0-.175-.133h-.044s-.044 0-.044-.044a.278.278 0 0 0-.263 0l-.264.133c-.087.088-.175.132-.263.265-.088.088-.176.221-.263.31-.088.132-.176.22-.22.353-.087.133-.131.266-.175.354a.717.717 0 0 0-.132.398c0 .133-.044.221-.044.31v.044c-.044.133 0 .265.044.398s.132.221.307.31h.088c.132.044.22.044.307.044.088 0 .132-.044.22-.089l.131-.132a.61.61 0 0 0 .132-.177v-.044l.088-.221a.61.61 0 0 1 .131-.177c.044-.045.088-.045.132-.045.044 0 .132 0 .176.045 0 .088-.044.177-.044.265-.044.088-.044.177-.088.265-.044.133-.132.221-.176.31a1.166 1.166 0 0 1-.263.221c-.088.044-.22.088-.351.133-.307.044-.439.044-.614-.045M208.414 5.307c.175-.221.35-.398.57-.575l.658-.53c.044-.045.044-.045.088-.045h.132l.131.133c.088.044.132.133.176.177.044.088.044.133 0 .177l-.044.044-.044.044-1.097.973-.175.266-.044.044-.088.088c-.044.044-.088.133-.132.221-.044.089-.088.133-.088.222-.043.088-.043.176 0 .22 0 .09.044.133.132.222.088.088.176.132.263.132.088 0 .176 0 .264-.044.087-.044.175-.088.22-.132a.606.606 0 0 0 .175-.133l.263-.265c.088-.089.132-.177.22-.266l.307-.398c.043-.044.087-.088.087-.133.044-.044.044-.088.088-.132.044-.044.044-.089.088-.133.044-.044.044-.088.088-.177l.219-.398v-.044s0-.044.044-.044l.044-.045.22.133.043.044s.044.045 0 .045c0 .044-.044.132-.044.177-.044.088-.044.132-.088.22a.336.336 0 0 0-.087.178c-.044.044-.088.088-.088.132l-.966 1.239c-.087.088-.175.176-.307.265a1.369 1.369 0 0 1-.439.221c-.175.044-.307.044-.482.044-.176-.044-.351-.088-.483-.22-.132-.09-.22-.222-.307-.31-.044-.133-.088-.222-.088-.354 0-.133 0-.221.044-.31.044-.088.088-.221.132-.31.044-.088.131-.176.175-.265.088-.22.132-.31.22-.398zM211.09 6.369l.746-.487c.044 0 .044-.044.088-.044s.044 0 .088-.044h.088c.044 0 .044.044.087.088a.61.61 0 0 1 .132.177c.044.044.088.088.088.177 0 .044.044.088.044.133 0 .044-.044.088-.088.132l-.132.089-1.799 1.282-.044.045c-.044.044-.044.088-.087.132-.044.044-.088.089-.088.133-.044.044-.044.088-.088.088 0 .045-.044.045-.044.089v.088l.044.044.088.089c.044.044.044.044.044.088l.395.531v.044s0 .045-.044.045c-.044.044-.088.044-.176-.045-.088-.088-.22-.177-.307-.265a1.913 1.913 0 0 0-.307-.265.958.958 0 0 0-.22-.133.606.606 0 0 1-.175-.133c-.044-.044-.044-.132-.044-.177.044-.088.088-.177.132-.31.087-.088.175-.22.263-.353.088-.133.22-.265.351-.398l.439-.442c.22-.133.35-.266.526-.398M213.285 8.138v-.045c0-.044-.044-.088-.088-.176-.044-.089-.088-.133-.088-.222-.044-.088-.044-.132-.088-.22 0-.09 0-.133.044-.133h.088l.088.088c.131.177.219.31.307.442.088.133.175.31.263.443l.176.31.175.353c.044.088.088.133.132.221.044.044.044.089.088.133 0 0 0 .044.043.088 0 .044.044.089.044.133 0 .044.044.088.044.133 0 .044 0 .044-.044.088h-.131l-.132-.133c-.044-.044-.088-.132-.175-.22a.968.968 0 0 0-.132-.222c-.044-.088-.088-.133-.132-.221-.044-.044-.088-.088-.088-.133l-.043-.044-1.097.575c-.264.177-.527.31-.79.487-.264.176-.483.31-.79.486l-.176.088s-.044-.044-.044-.088c-.044-.044-.044-.088-.087-.088-.044-.089-.088-.177-.044-.266 0-.088.044-.132.087-.22a.606.606 0 0 1 .176-.134c.044-.044.088-.088.132-.088.263-.177.482-.31.746-.487.219-.132.482-.31.702-.442.131-.044.22-.133.35-.177.176-.132.308-.22.484-.31M212.802 10.57c.263-.088.526-.133.79-.177.263-.044.526-.044.833-.088h.132c.044 0 .088 0 .088.044l.044.177a.565.565 0 0 1 .044.265c0 .089-.044.133-.088.177h-.088l-1.448.221-.307.089-.088.044-.132.044c-.087.044-.131.044-.219.089-.088.044-.132.088-.22.132-.043.045-.087.133-.131.177a.284.284 0 0 0 0 .266.564.564 0 0 0 .175.265.62.62 0 0 0 .264.088h.263c.088 0 .176-.044.22-.044.131-.044.263-.044.35-.088.088-.044.22-.044.308-.089l.482-.177c.044 0 .132-.044.176-.044.044 0 .088-.044.132-.044.043 0 .087-.044.131-.089.044-.044.132-.044.176-.088l.395-.221h.175l.132.221v.088c-.044.045-.088.089-.176.133-.044.044-.131.089-.175.133a.332.332 0 0 1-.176.088c-.044.045-.131.045-.131.045l-1.492.486c-.132.044-.264.044-.395.088-.176 0-.307 0-.483-.044a1.369 1.369 0 0 1-.439-.22 1.589 1.589 0 0 1-.307-.443c-.044-.177-.088-.31-.088-.442 0-.133.044-.222.088-.354.044-.089.132-.177.22-.266.087-.088.175-.132.263-.177.087-.044.22-.088.307-.132.175-.089.263-.089.395-.133zM213.723 13.754c-.044 0-.044 0-.044.045v.044c0 .088.044.221.088.31a.926.926 0 0 0 .176.265.771.771 0 0 0 .22.177.393.393 0 0 0 .219.044c.219 0 .394-.088.57-.221l.527-.398V13.754s-.044 0-.088-.044h-1.317l-.35.044zm-.438.133v-.044s0-.044-.044-.044l-.351.044c-.132 0-.264.044-.351.044-.132.044-.264.044-.352.044-.043 0-.087 0-.087-.044-.044-.044-.044-.088-.044-.177v-.177c0-.044.044-.132.044-.177.044-.044.044-.088.087-.132.044-.045.088-.045.132-.045l3.072-.176h.131c.044 0 .088 0 .132.044.044 0 .088.044.088.088.044.044.044.089.044.133l-.044.044c0 .044-.044.044-.044.089 0 .044-.044.044-.044.044v.044c0 .044 0 .089.044.133 0 .044.044.088.088.132.044.045.044.089.088.133 0 .044.043.089.043.133v.22c0 .09 0 .134-.043.178a.336.336 0 0 1-.088.177.61.61 0 0 0-.132.177c-.044 0-.088.044-.132.088a.958.958 0 0 1-.219.133c-.088.044-.132.088-.22.088-.043.044-.087.044-.131.089-.088.044-.132.088-.175.088-.044 0-.088.044-.176.044-.132 0-.22 0-.307-.044-.088-.044-.176-.133-.263-.177-.088-.088-.176-.177-.22-.265-.088-.133-.132-.221-.22-.31 0 0 0-.044-.043-.044 0-.044-.044-.044-.044-.044l-.088.088-.131.266-.132.265-.088.177c-.088.133-.22.265-.307.354a.704.704 0 0 1-.395.132h-.22c0-.044-.043-.088-.087-.132-.044-.044-.044-.089-.088-.133-.044-.044-.044-.088-.088-.133 0-.044-.044-.088-.044-.088v-.044c0-.045 0-.089.044-.089s.044-.044.088-.044l.614-.265c.044-.045.132-.089.176-.133.088-.044.132-.088.22-.177a.775.775 0 0 0 .175-.221c.132-.133.132-.265.132-.354z"/>
                <path d="M212.231 15.922c.308-.089.615-.133.922-.133.307 0 .614 0 .921.044.132 0 .264.044.395.044.132.045.264.045.395.089h.264c.087 0 .175.044.219.044.088.044.132.044.22.088.043.045.131.089.175.177.044.089.088.177.088.266V17.646c0 .045 0 .133-.044.177 0 .045-.044.133-.044.177 0 .044-.044.044-.088.044s-.044-.044-.088-.132c-.044-.089-.044-.177-.044-.266 0-.088-.043-.177-.043-.265 0-.088-.044-.133-.044-.177V16.718s-.044 0-.088-.045c-.044 0-.088-.044-.088-.044s-.044 0-.088-.044c-.043 0-.131-.044-.219-.044s-.175-.045-.263-.045c-.088 0-.176-.044-.22-.044l-.044.044c0 .089.044.177.044.266v.663c0 .044-.044.089-.044.089-.043.044-.043.044-.087.044l-.132-.265c-.044-.089-.044-.177-.044-.31v-.62h-.088l-.614-.088h-.746l-.044.045-.131 1.15c0 .044-.044.088-.044.088h-.088c-.044 0-.044-.044-.088-.089 0-.044-.044-.132-.044-.22v-1.062c0-.044 0-.089-.044-.133 0-.044 0-.088-.044-.132v-.133c0-.089.044-.133.088-.133-.131.31-.088.31-.044.266M209.203 15.435h-5.134a2.67 2.67 0 0 1-2.677 2.698 2.67 2.67 0 0 1-2.676-2.698 2.67 2.67 0 0 1 2.676-2.698h.395c.088 0 .132.044.22.044.044 0 .044 0 .088.045.087 0 .131.044.219.044.044 0 .044 0 .088.044l.263.133c.088.044.176.088.263.177.088.044.176.132.22.177 0 0 .044 0 .044.044l.175.177.044.044c.044.088.132.133.176.221l4.212-2.963a7.738 7.738 0 0 0-6.407-3.361 7.719 7.719 0 0 0-6.494 3.538V7.784h-5.134v6.501l-5.661-5.705c-1.053-1.061-2.765-1.061-3.862.044-.526.53-.79 1.194-.79 1.858V23.307h5.135v-6.5l5.66 5.704c1.054 1.062 2.809 1.106 3.862.045.483-.487.746-1.15.79-1.77v-.973c1.229 1.858 3.247 3.185 5.573 3.45 1.536.089 2.282-.177 3.072-.486-.132.265-.22.442-.351.619l3.73 3.76s.482-.62.658-.841c.175-.221.57-.796.965-1.902.351-1.061.658-2.52.658-4.555v-4.422M176.029 13.135c-1.449 0-2.59 1.194-2.59 2.565v2.433h-7.284l5.66-5.705c1.054-1.062 1.054-2.787-.043-3.892-.614-.62-1.448-.796-2.238-.796h-9.786a2.53 2.53 0 0 0-2.545 2.565c0 1.46 1.185 2.61 2.545 2.61h3.906l-5.66 5.704c-1.054 1.062-1.098 2.83-.045 3.892.483.487 1.141.752 1.755.796h13.78l5.046 3.715V15.745c.044-1.416-1.097-2.61-2.501-2.61"/>
                <path d="M175.897 7.209a2.67 2.67 0 0 0-2.677 2.698 2.67 2.67 0 0 0 2.677 2.698 2.67 2.67 0 0 0 2.677-2.698 2.67 2.67 0 0 0-2.677-2.698"/>
            </g>
            <ellipse cx="150.592" cy="15.522" rx="2.492" ry="2.511"/>
        </g>
        <g transform="translate(.04)">
            <ellipse fill="#FFF" transform="rotate(-22 37.46 38.69)" cx="37.46" cy="38.689" rx="31.952" ry="20.913"/>
            <path d="M68.291 26.84c-1.64-5.495-6.093-9.587-12.537-11.523a27.96 27.96 0 0 0-4.178-.905c-.454 0-.68.612-.182.94.022.015.04.03.053.047 1.244.192 2.446.456 3.595.802 6.035 1.813 10.194 5.611 11.712 10.694 1.748 5.852-.239 12.797-5.451 19.056-7.628 9.156-20.79 15.309-32.752 15.309-2.996 0-5.817-.391-8.382-1.162-6.035-1.814-10.195-5.613-11.712-10.696-1.748-5.852.24-12.797 5.452-19.054 2.526-3.032 5.66-5.732 9.155-7.991a.28.28 0 0 1 .093-.066c.446-.217.219-.956-.401-.665-3.6 2.326-6.828 5.106-9.43 8.229C7.845 36.436 5.772 43.8 7.64 50.057c1.641 5.494 6.093 9.587 12.537 11.524 2.68.805 5.62 1.213 8.735 1.213 12.305 0 25.845-6.33 33.694-15.75 5.482-6.584 7.555-13.948 5.686-20.205" fill="#0069B3"/>
            <path d="M65.732 27.741C64.347 23.128 60.51 19.668 54.928 18c-1.304-.39-2.852-.696-4.478-.886-.249-.057-.408.075-.454.223-.058.184.042.426.394.552l.065.016c1.495.174 2.923.463 4.244.858 5.32 1.59 8.967 4.86 10.271 9.209 1.536 5.116-.296 11.292-5.027 16.943-9.197 10.987-26.565 16.97-38.712 13.338-5.318-1.591-8.966-4.862-10.27-9.21-1.537-5.116.296-11.292 5.027-16.943 2.359-2.818 5.286-5.353 8.7-7.536l.079-.074c.075-.103.23-.316.087-.521-.149-.21-.418-.131-.534-.098l-.074.034c-3.478 2.225-6.462 4.81-8.868 7.684-4.906 5.86-6.794 12.305-5.18 17.684 1.386 4.613 5.222 8.073 10.805 9.742 2.423.724 5.097 1.092 7.946 1.092 11.553 0 24.253-5.9 31.603-14.68 4.906-5.861 6.794-12.307 5.18-17.685" fill="#35B9C9"/>
            <path d="M62.496 26.76c-2.428-4.22-7.37-6.88-13.916-7.485-.371-.034-.767-.06-1.277-.082-.224.034-.373.055-.392.193-.02.142.13.2.377.295l.05.01c.438.021.824.048 1.18.08 6.364.59 11.159 3.157 13.502 7.23 2.23 3.877 1.946 8.694-.798 13.565C55.378 50.942 40.12 58.41 27.207 57.218c-6.364-.59-11.159-3.157-13.501-7.229-2.23-3.877-1.947-8.695.797-13.565 1.874-3.328 4.83-6.503 8.572-9.205.062-.069.25-.278.107-.42-.096-.096-.266-.075-.473.063-3.775 2.723-6.778 5.951-8.684 9.335-2.83 5.022-3.112 10.006-.796 14.032 2.429 4.222 7.371 6.88 13.916 7.486 1.85.17 3.79.17 5.769-.005 11.93-1.052 23.768-8.01 28.786-16.918 2.83-5.022 3.112-10.005.796-14.031" fill="#E62679"/>
            <g>
                <path d="M34.6 18.188c.411-.132.804-1.016-.371-.849a46.51 46.51 0 0 0-5.69 1.87c-.356.347.084.894.451.75a.293.293 0 0 1 .138-.022 44.898 44.898 0 0 1 5.416-1.718.133.133 0 0 1 .055-.03" fill="#0069B3"/>
                <path fill="#1D1D1B" d="m36.222 19.444.509.184.992-.412 1.61-.06v.253h.145v.16h.157v-.112h.213v.899h.215l.001.152h.218v.36h.177v1.546l-.14-.002.001.228-.212-.002v.612h-.176v.755h-.148v1.101l-.156.002v.352h-.133v.394h-.24v.572h-.165v.734h-.154v.155h.156v.18h.39v-.18h1.237v.14h.214v.357h.17v.14h.562v.235h.185v.158h.192v-.172h.335v.138h.184v-.14h.555v.129h.145v-.168h.366v-.17h.754v.142h.37v.177h.18v.18h.553v.18h.168v.196h.206v.426l.193.004v.336h.18v1.804h-.125v.91h-.173v.563h-.16v.36h-.192v.336h-.178v.202h-.204v.193h-.902v-.148h-.177v-.176h-.17v-.195h-.178v-.555h-.222v-1.243h-.192v-.178h-.179l-.003-.146h-.37v-.184h-.16v.184h-.411v-.576h-.177v-.147h-.166v.31h-.372V30.6l-.172-.001v.538h-.55V31h-1.626v.183h-.2V31h-.145v.183h-.201V31h-.378v-.147h-.36v-.189H37.7v-.172h-.546v-.155h-.918v-.214h-.177v-.175h-.352v-.14h-.217v-.178h-.172v-.175h-.164v-.377h-.176v-.16h-.236v-1.122h.232v-.373h.15v-.41h.141v-.32h.163v-.373h.224v-.783h.177v-.606h-.349v.246h-.22l.002.218h-2.156v.213h-.717v.19h-.886v.219h-.747v-.165h-.732V25.7h-.356v-.204h-.389v-.159h-.517v-.172h-1.094v-.147h-1.267v-.182h-.19v-.377h.16v-.506h-.319v.333h-.185v.188h-.929v-.132h-.315l.001.176-.368.002v.176h-1.106v-.15l-.212-.002v-.355h-.345v-.184h-.127v-1.48h.083v-1.654h.152v-1.297h.177v-.518h.168l-.001-.2h.352v-.205h.733v.157h.222v.198h.184v.357h.157v.353h.184v.167h.248v1.306h-.173v.14h.364v-.149h.169v-.188h.176v-.161h.137v.484h-.121v.197h-.212l.001.175h-.172v.207h-.163v.172h.52v.184h.359v.171h.34v-.727h.169v.168h.17v-.168h.783v-.166h.188v.166h.682v.123h2.859v-.176h.195V21.4h.179v-.158h.41v-.246h.475v-.182h1.69V21h.663v-.187h.174v-.228h.156v-.146h.182v-.167h.194v.148h.389v.159h.356v.172h.16v-.172h.145v-.354h.263v.354h.147v-.706h-.172v.219h-.391v-.219h-.195z"/>
                <path fill="#1D1D1B" d="M33.689 9.09h.603v-.52h.364v.16l.56-.002v.336h.158v.366h.477v-.144h-.161v-.184h-.164v-.337h-.194l.001-.196h-.357v-.364l.575-.001v.191h.166v.145h.172v.3l.197-.001v.61h-.142v.148h.29v-.149h.51v-.345h-.207v-.225h-.118v-.175l-.374-.001v-.549h.319v-.168h.156v-.501l-.146-.003.001-1.813h.123v-.195h.18v-.216h.195v-.14h.531v.51h-.15v.153l.154-.002v.407l.226-.001v.364h.338v.158h.315V6.53h.168v-.167h.423v.13h.16v.333h.155v-.502h.16l-.001-.4h.183V5.75h.179v-.16h.146v-.388l.183.003v-.324h-.183v-.368h-.162l.002-.163h-.22V3.41h.507v-.666h-.105v.101h-.205v.232h-.198v.275h-.056v.28h-.086l.001.23h-.133v.49h-.168v.58h-.166v.53h-.191v.713h-.198V5.1h.15l.002-.589h.162l-.005-.553h.175l-.003-.376h.159l-.002-.36.186.003-.004-.39.158-.001v-.145h.177v-.206h.184v-.144h.162v-.216h.178v-.174h.17v-.185h.157v-.17h.197v-.19h.35v-.2h.181v-.197h.327V.837h.417v-.17h.31V.83h-.143v.179h-.355v.2h-.368v.208h-.16v.16h-.333v.194h-.163v.87h.146V2.48h.194v-.19h.17v.166h.223v.197l.32-.006v.548h-.148v.327h.527v.511h-.22v.246l-.118.003v.166h-.136v.41h-.163v.16h-.17v.362l-.167.002.005.214-.169.004-.003.17-.216.002-.003.735h-.206v.34h-.095l-.004.544-.173-.002v.525l-.193.003v.544h-.153v1.98l-.176.006v.721h-.15v.513h-.162v.157h.168v.37h.157v1.077h.234v-1.242h.149v.149h.166v1.338h-.084l-.002.485-.176.003v.37h-.2v1.072h.157v1.657h-.15v.526h-.161v.364l-.15-.002v.352h-.164l-.004.386h-.162v.11l-1.57.059-.975.406-.511-.189v-2.504h.13v-.527h.13V14.85h-.163v-.154h-.148v.144h-.354v-.137h-.193l-.002-.243h.193v-.654h-.387v-.44l.194.003v-.185h-.56v-.636h-.398v-.19h-.177v-.61l.157-.003.003-.299-.205-.006v-.866h-.174l-.006-.19h-.158v-.168l-.302.003M42.534.259h-.263v.407h.66V0h-.397z"/>
                <path fill="#FEFEFE" d="M38.72 18.511v.14h.086v-.346h.211v-.35h.188v-.369h.152v-.339h.153v-.346h.12v-.857h-.158v-.868h-.17v.18h-.187v.19h-.143v.194h-.38v-.379h.177v-.214h.17v-.206h.173v-.152h.146v-.398h.162v-.341l.165-.003v-.155h-.313v-.17h-.142v-.173h-.177v-.173h-.195v-.186h-.208v-.31h-.12v-.378h-.206v-.365h-.132v-.147h-.134v.55h-.155v.325h-.167v.347h-.157v.218h-.161v.351h-.136v.354h-.192v.334h.15v1.06h.195l-.002.167h.143v-.493h-.17v-1.289h.34v1.434h.218v.875h.15v.724h-.176V16.6h-.168v-.5h-.125v1.566h-.12v.82h.294v-.124h.364v.149z"/>
                <path fill="#0069B3" d="M41.61 28.516v.49h-.124v.378h-.173v1.256H38.82v-.127h-.185v-.17h-.217v-.186h-.343v-.169h-1.131v-.169h-.342v-.16h-.195v-.172h-.186V29.3h-.162v-.176h-.235v-.17h-.183v-.205h-.186v-.69h.206v-.327h.178v-.356h.163v-.373h.17v-.547h.181v-.716h.115v-.904l.199-.001.003-.197h.312v-.175h.439v-.184h.506v-.177h.339v-.387h-.563v.14h-.576v.225h-.838l-.006-.148h-1.05v-.156h-.694v-.17h-.597v-.166h-.345v-.184h-.43v.693h.212v.198h.178v.182l.512-.001v.161l.42-.001v.138h.531v.223h.561v.167h-.34v.18h-2.544v-.12h-.249v.17h-.172v.168h-.341v.194h-1.209v-.12h-.524v-.17h-.378v-.165h-.371v-.2H28.19v-.141h-.556v-.179h-.547v-.686h.152v-.95h-.152v-.726h1.397v.113h3.267v-.132h.172v-.182h.336l-.004-.169h.184v-.19h.571v-.2h1.236v.14h1.131v-.156h.104l.001-.186h.257l-.001-.196h.28v.162h.367v.175h.773v-.371h.275v-.338h.262v-.227h.175v-.185h.174v-.347h1.214v.167h.22v.134h.494v.505h.254v.573h.173v.838h-.146v.402h-.172v.168h-.217v.169h-.172v.17h-.148l.002.179h-.22v.19h-.176v.192h-.178v.193l-.168.002v.166h-.33v.188h-.198v.177h-.372v.234h-.825v.208h.304v.149h.932v-.183h.208v-.206h.129v-.168h.327v-.182l.24-.004v-.185h.17l-.003-.169h.211l-.004-.178h.303v.314h-.146v1.087h-.148v.524h-.194v.188h-.18l-.001 1.096h-2.001v.234h-.397v.335h1.484v.189h-.158l-.001.168h-.227v.335h.567v-.304h.226v-.195h.18v.14h.307v.155h.972v-.143h.691l-.002.518h.173v.158l.567.005"/>
                <path fill="#FAD8C9" d="M25.767 22.647v.666h.4v-.167h.26v-.499z"/>
                <path fill="#FEFEFE" d="M25.806 22.65v.684h-.072v.645h.06v-.137h.056v-1.195zM22.467 22.647v1.332h.352v-.248h.308v-1.084zM24.447 22.647v.174h.128v1.031h-.124v.127h.466v-.662h.19v-.67zM23.465 20.649v.73H23.3l.003 1.08h-.176v.16h.16v1.294h-.153v.733h.68v-.181h.339v-.205h-.524v-.347h-.158v-.888h.15v-.247h.139v-.17h.234v-.318h-.233v-.218h.19v-.17h.496v-.59h-.505v-.137h-.161v-.176l-.163-.005.002-.345zM22.908 19.669h-.224v1.028h-.217v1.284h.264v-1.02h.17l-.012-1.106h.238v-.538h-.219z"/>
                <path fill="#FEFEFE" d="M23.754 23.313h.116v-.666h-.116zM36.566 15.99v.725h-.131v.58h-.106v1.285h.149v.737h.113v-.21h.16v-.92h.106v-1.68h.133v-.18h-.133v-.34zM39.358 12.883l-.388.002v.154h.206v.45l.182-.005v.217l.202.004-.003.283h.073v-1.102h-.172v-.23h-.1zM34.36 9.325l-.01.152h.174v.6h-.158v.337h.226v.24l.116.003v-.233l.157.001v-.454h.144v-.219h-.183V9.56h-.163l-.014-.235z"/>
                <path fill="#FAD8C9" d="M40.73 3.997v.21h-.187v.173h-.349v.118h.19V4.7h.177v.377h.21v.748h-.168v.378h-.169v.392h-.17v.188h-.182v.343h-.176v.345h-.22v1.416h-.172v.209h-.167v.346l-.168.004v.358h-.196v.378h-.185v.714l-.18-.002v.161l-.192-.003V9.99h-.18v-.543l.204-.006v.146h.314v-.312h.183l.003-.172h.186V8.51h.134v-.664h-.118v.198h-.194v.169h-.157l.002.758H38.6v.136h-.882v.691l.217-.002.005.285-.438.004v-.448l-.187.005V8.76h.207v.149h.12l.006-.502h-.143v-.645h-.176V7.37h-.34v.32h.183v.717h-.187v.719l.208-.007.002 1.081-.421.002v.177h-1.077v-.115h-.171v.529h-.168v.223l-.348-.003v.643l.208-.002-.001.221.212-.002.001.532h-.22v.15h.376v.711l.158-.002.006-.168h.57v.72h.376v.172h.315v-.343h.19l-.001-.215h.172v-.354h.2v-.348h.143v-.326h-.343v-.63l.169.005v-.123h.155l.001-.358h-.114l-.002.196h-.38v-.585h.16v-.15h.409l-.003.15h.164v.133l.37-.003v.19h.217v.555h.186v.499h.176v.356h.13v-.15h.221v-.206h.178v-.342h.14l.004-.54h.196v-.539h.122V8.695h.16v-.553h.193v-.525l.172-.004V7.25l.16-.01v-.55h.174V6.14h.177v-.697h.604v-.39l.1-.005v-.84h-.157v-.21z"/>
                <path fill="#1D1D1B" d="M35.01 11.407h.66v-.117h-.66zM35.01 12.073h.66v-.117h-.66z"/>
                <path fill="#0069B3" d="M34.316 24.04h.116v-.07h-.116zM35.67 23.98v.415h-.14v.25h-.106v-.24h-.17v-.24h-.245v-.186z"/>
                <path fill="#FAD8C9" d="M42.238 29.974v-1.087h.066v-.245h.05v.967h-.064v.365z"/>
                <path fill="#FEFEFE" d="M42.24 28.716h.11v-.098h-.11zM44.218 28.711h.116v-.088h-.116z"/>
                <path fill="#FEFEFE" d="M44.223 28.714h.106v-.094h-.106zM45.234 28.874h.337v.201h-.505v.233h-.155v-.423h.239v-.243h.084zM44.911 29.495h.529v-.187h.131v.307h-.125v.157h-.326v.202h-.209zM44.911 30.326h.27v-.157h.277v-.195h.113v.486h-.294v.18h-.366zM44.911 31.306h.104v.249h.446v-.239h.11v.408h-.15v.248h-.51zM44.911 32.605h.66v.117h-.373v-.076h-.287zM44.895 33.372h.083v-.084h-.083zM42.93 29.974v-.666h.862v.205h.46v.17h-1.178v.291z"/>
                <path fill="#FEFEFE" d="M42.93 29.353h.122v.282h.107v.17h.2v.245h.635v-.178h.157v-.564h.1v1.789h-.057v.875h-.164v-1.247h-.407v-.237h-.35v-.17h-.342zM35.67 13.988h.378v.345h.281v.321h-.66zM37.636 12.656h.077v-.666h-.077zM39.6 14.06h.11v-.093h-.11z"/>
                <path fill="#1D1D1B" d="M34.135 10.293v-.04h.133V9.89h-.142v-.2h.085v-.364h-.437v.278h-.085v.364h.142v.157H33.7v.364h.213v.17h.437v-.365zM34.35 10.075h.66v-.117h-.66zM36.33 9.409h.66v-.117h-.66zM35.67 9.409h.66v-.117h-.66z"/>
            </g>
            <g>
                <path fill="#E62679" d="M26.805 35.298v4.3H22.57v-8.6h-4.236v12.901h8.471V52.5h4.236V30.998h-4.236z"/>
                <path d="m49.297 35.848-.249-1.617c-.067-.434-.112-.878-.17-1.312h-.022c-.067.434-.124.878-.214 1.312l-.317 1.617h.972zm.206 1.953-.123-.88H48.25l-.14.88h-1.73l1.492-6.835h2.05l1.318 6.835h-1.738zM52.376 30.882h1.55l1.303 4.116.016-.018c-.064-.789-.184-1.569-.184-2.357v-1.74h1.567v6.834H55.06l-1.215-3.943-.015.018c.04.644.112 1.278.112 1.922v2.003h-1.567v-6.835zM58.355 35.378c.24.368.66.736 1.108.736.24 0 .515-.15.515-.438a.52.52 0 0 0-.138-.368 1.38 1.38 0 0 0-.292-.255c-.343-.271-.644-.525-.867-.84a1.941 1.941 0 0 1-.352-1.158c0-.77.48-2.173 1.975-2.173.421 0 .876.132 1.246.333v2.007c-.206-.333-.627-.71-1.03-.71-.207 0-.456.15-.456.403 0 .14.077.263.172.368.094.105.223.193.318.272.369.263.66.508.858.806.206.298.318.649.318 1.148 0 1.227-.842 2.208-2.061 2.208-.447 0-.902-.096-1.314-.271v-2.068z" fill="#0069B3"/>
                <path d="M41.519 39.599v8.6h-4.236V35.3h4.236v4.3zm1.7-8.601H33.046V52.5H45.755V33.7c-.227.208-.478.324-.742.324-.885 0-1.623-1.299-1.795-3.026z" fill="#E62679"/>
            </g>
        </g>
    </g>
</svg>
